<svg width="121" height="24" viewBox="0 0 121 24" fill="none" xmlns="http://www.w3.org/2000/svg">
<path d="M0.95 23V1.85H6.5V10.01H15.02V1.85H20.57V23H15.02V14.54H6.5V23H0.95ZM32.4254 23.33C30.7254 23.33 29.1054 23.13 27.5654 22.73C26.0454 22.31 24.7654 21.75 23.7254 21.05L25.2854 16.76C25.9454 17.18 26.6654 17.54 27.4454 17.84C28.2254 18.14 29.0354 18.38 29.8754 18.56C30.7354 18.72 31.6054 18.8 32.4854 18.8C33.8054 18.8 34.7154 18.63 35.2154 18.29C35.7354 17.95 35.9954 17.51 35.9954 16.97C35.9954 16.49 35.8254 16.12 35.4854 15.86C35.1454 15.58 34.5054 15.34 33.5654 15.14L29.9054 14.39C27.9654 13.99 26.5154 13.3 25.5554 12.32C24.5954 11.32 24.1154 10.02 24.1154 8.42C24.1154 7.02 24.4854 5.81 25.2254 4.79C25.9854 3.75 27.0454 2.95 28.4054 2.39C29.7654 1.81 31.3554 1.52 33.1754 1.52C34.6754 1.52 36.0854 1.73 37.4054 2.15C38.7254 2.55 39.8054 3.11 40.6454 3.83L39.0854 7.85C38.2854 7.27 37.3854 6.83 36.3854 6.53C35.3854 6.21 34.2754 6.05 33.0554 6.05C31.8954 6.05 31.0154 6.23 30.4154 6.59C29.8354 6.93 29.5454 7.42 29.5454 8.06C29.5454 8.5 29.7154 8.88 30.0554 9.2C30.4154 9.5 31.0654 9.75 32.0054 9.95L35.6054 10.67C37.5454 11.05 38.9954 11.73 39.9554 12.71C40.9354 13.69 41.4254 14.97 41.4254 16.55C41.4254 17.91 41.0454 19.1 40.2854 20.12C39.5454 21.14 38.5054 21.93 37.1654 22.49C35.8254 23.05 34.2454 23.33 32.4254 23.33ZM52.0123 23.33C50.3323 23.33 48.8623 23.01 47.6023 22.37C46.3423 21.73 45.3623 20.82 44.6623 19.64C43.9623 18.44 43.6123 17.01 43.6123 15.35C43.6123 13.69 43.9623 12.27 44.6623 11.09C45.3623 9.91 46.3423 9.01 47.6023 8.39C48.8623 7.75 50.3323 7.43 52.0123 7.43C53.0523 7.43 54.0723 7.57 55.0723 7.85C56.0723 8.13 56.8823 8.53 57.5023 9.05L56.0023 12.68C55.5223 12.28 54.9723 11.98 54.3523 11.78C53.7523 11.56 53.1623 11.45 52.5823 11.45C51.4823 11.45 50.6223 11.78 50.0023 12.44C49.4023 13.1 49.1023 14.07 49.1023 15.35C49.1023 16.63 49.4023 17.61 50.0023 18.29C50.6223 18.95 51.4823 19.28 52.5823 19.28C53.1423 19.28 53.7323 19.18 54.3523 18.98C54.9723 18.76 55.5223 18.46 56.0023 18.08L57.5023 21.71C56.8623 22.21 56.0423 22.61 55.0423 22.91C54.0623 23.19 53.0523 23.33 52.0123 23.33ZM59.7125 23V0.919998H65.0525V10.43H64.6025C65.1025 9.45 65.8125 8.71 66.7325 8.21C67.6525 7.69 68.7025 7.43 69.8825 7.43C71.6625 7.43 72.9925 7.96 73.8725 9.02C74.7525 10.08 75.1925 11.69 75.1925 13.85V23H69.8525V14.09C69.8525 13.17 69.6825 12.51 69.3425 12.11C69.0225 11.71 68.5325 11.51 67.8725 11.51C67.0125 11.51 66.3225 11.78 65.8025 12.32C65.3025 12.86 65.0525 13.57 65.0525 14.45V23H59.7125ZM86.0239 23.33C84.3239 23.33 82.8539 23.01 81.6139 22.37C80.3739 21.73 79.4139 20.82 78.7339 19.64C78.0539 18.44 77.7139 17.02 77.7139 15.38C77.7139 13.72 78.0539 12.3 78.7339 11.12C79.4139 9.94 80.3739 9.03 81.6139 8.39C82.8539 7.75 84.3239 7.43 86.0239 7.43C87.7039 7.43 89.1639 7.75 90.4039 8.39C91.6439 9.03 92.6039 9.95 93.2839 11.15C93.9639 12.33 94.3039 13.74 94.3039 15.38C94.3039 17 93.9639 18.41 93.2839 19.61C92.6039 20.81 91.6439 21.73 90.4039 22.37C89.1639 23.01 87.7039 23.33 86.0239 23.33ZM86.0239 19.37C86.9039 19.37 87.6039 19.06 88.1239 18.44C88.6439 17.8 88.9039 16.78 88.9039 15.38C88.9039 13.98 88.6439 12.97 88.1239 12.35C87.6039 11.71 86.9039 11.39 86.0239 11.39C85.1239 11.39 84.4139 11.71 83.8939 12.35C83.3739 12.97 83.1139 13.98 83.1139 15.38C83.1139 16.78 83.3739 17.8 83.8939 18.44C84.4139 19.06 85.1239 19.37 86.0239 19.37ZM104.54 23.33C102.84 23.33 101.37 23.01 100.13 22.37C98.8895 21.73 97.9295 20.82 97.2495 19.64C96.5695 18.44 96.2295 17.02 96.2295 15.38C96.2295 13.72 96.5695 12.3 97.2495 11.12C97.9295 9.94 98.8895 9.03 100.13 8.39C101.37 7.75 102.84 7.43 104.54 7.43C106.22 7.43 107.68 7.75 108.92 8.39C110.16 9.03 111.12 9.95 111.8 11.15C112.48 12.33 112.82 13.74 112.82 15.38C112.82 17 112.48 18.41 111.8 19.61C111.12 20.81 110.16 21.73 108.92 22.37C107.68 23.01 106.22 23.33 104.54 23.33ZM104.54 19.37C105.42 19.37 106.12 19.06 106.64 18.44C107.16 17.8 107.42 16.78 107.42 15.38C107.42 13.98 107.16 12.97 106.64 12.35C106.12 11.71 105.42 11.39 104.54 11.39C103.64 11.39 102.93 11.71 102.41 12.35C101.89 12.97 101.63 13.98 101.63 15.38C101.63 16.78 101.89 17.8 102.41 18.44C102.93 19.06 103.64 19.37 104.54 19.37ZM115.435 23V0.919998H120.775V23H115.435Z" fill="#001A49"/>
</svg>
