<svg width="64" height="64" viewBox="0 0 64 64" fill="none" xmlns="http://www.w3.org/2000/svg">
<path fill-rule="evenodd" clip-rule="evenodd" d="M32 64C49.6731 64 64 49.6731 64 32C64 14.3269 49.6731 0 32 0C14.3269 0 0 14.3269 0 32C0 49.6731 14.3269 64 32 64Z" fill="white"/>
<path fill-rule="evenodd" clip-rule="evenodd" d="M40.6667 44.9769C39.1982 47.3064 35.8018 47.3064 34.3333 44.9769L26.6186 32.7399C25.0471 30.2471 26.8385 27 29.7854 27H45.2146C48.1615 27 49.9529 30.2471 48.3814 32.7399L40.6667 44.9769Z" fill="url(#paint0_linear_65_2)"/>
<path fill-rule="evenodd" clip-rule="evenodd" d="M23.3333 22.0231C24.8018 19.6936 28.1982 19.6936 29.6667 22.0231L37.3814 34.2601C38.9529 36.7529 37.1615 40 34.2146 40H18.7854C15.8385 40 14.0471 36.7529 15.6186 34.2601L23.3333 22.0231Z" fill="url(#paint1_linear_65_2)"/>
<defs>
<linearGradient id="paint0_linear_65_2" x1="33.1228" y1="77.7881" x2="65.725" y2="32.4379" gradientUnits="userSpaceOnUse">
<stop stop-color="#FFD7A9"/>
<stop offset="1" stop-color="#FFAE70"/>
</linearGradient>
<linearGradient id="paint1_linear_65_2" x1="28.3521" y1="45.4372" x2="43.4268" y2="25.8284" gradientUnits="userSpaceOnUse">
<stop stop-color="#99C6F2"/>
<stop offset="1" stop-color="#3D75BF"/>
</linearGradient>
</defs>
</svg>
