<svg width="331" height="56" viewBox="0 0 331 56" fill="none" xmlns="http://www.w3.org/2000/svg">
<path d="M89.3873 42V15.915H95.1593V26.386H107.11V15.915H112.919V42H107.11V31.159H95.1593V42H89.3873ZM127.656 42.407C125.56 42.407 123.599 42.148 121.773 41.63C119.948 41.112 118.394 40.3967 117.111 39.484L118.813 34.97C119.652 35.5373 120.54 36.0183 121.477 36.413C122.415 36.8077 123.401 37.116 124.437 37.338C125.473 37.5353 126.559 37.634 127.693 37.634C129.469 37.634 130.727 37.3627 131.467 36.82C132.232 36.2773 132.614 35.5867 132.614 34.748C132.614 33.9833 132.355 33.4037 131.837 33.009C131.344 32.5897 130.431 32.232 129.099 31.936L124.733 31.048C122.341 30.5547 120.552 29.716 119.368 28.532C118.184 27.348 117.592 25.7693 117.592 23.796C117.592 22.1187 118.036 20.6633 118.924 19.43C119.812 18.1967 121.058 17.2347 122.661 16.544C124.289 15.8533 126.189 15.508 128.359 15.508C130.209 15.508 131.936 15.767 133.539 16.285C135.143 16.803 136.462 17.543 137.498 18.505L135.796 22.723C134.785 21.909 133.65 21.3047 132.392 20.91C131.159 20.4907 129.778 20.281 128.248 20.281C126.645 20.281 125.412 20.5647 124.548 21.132C123.71 21.6993 123.29 22.4763 123.29 23.463C123.29 24.203 123.549 24.8073 124.067 25.276C124.585 25.72 125.498 26.0777 126.805 26.349L131.097 27.2C133.539 27.6933 135.352 28.5197 136.536 29.679C137.72 30.8383 138.312 32.38 138.312 34.304C138.312 35.932 137.868 37.3503 136.98 38.559C136.117 39.7677 134.884 40.7173 133.28 41.408C131.702 42.074 129.827 42.407 127.656 42.407ZM155.192 42.407C152.404 42.407 150.012 41.852 148.014 40.742C146.016 39.632 144.474 38.078 143.389 36.08C142.328 34.0573 141.798 31.677 141.798 28.939C141.798 26.201 142.328 23.833 143.389 21.835C144.474 19.837 146.016 18.283 148.014 17.173C150.012 16.063 152.404 15.508 155.192 15.508C156.992 15.508 158.633 15.767 160.113 16.285C161.593 16.7783 162.851 17.506 163.887 18.468L162.074 23.019C160.939 22.131 159.854 21.502 158.818 21.132C157.806 20.762 156.659 20.577 155.377 20.577C152.935 20.577 151.06 21.3047 149.753 22.76C148.47 24.1907 147.829 26.2503 147.829 28.939C147.829 31.6277 148.47 33.6997 149.753 35.155C151.06 36.6103 152.935 37.338 155.377 37.338C156.659 37.338 157.806 37.153 158.818 36.783C159.854 36.413 160.939 35.784 162.074 34.896L163.887 39.447C162.851 40.3843 161.593 41.112 160.113 41.63C158.633 42.148 156.992 42.407 155.192 42.407ZM167.904 42V15.915H173.676V26.386H185.627V15.915H191.436V42H185.627V31.159H173.676V42H167.904ZM195.961 28.939C195.961 26.2257 196.467 23.87 197.478 21.872C198.514 19.8493 199.994 18.283 201.918 17.173C203.842 16.063 206.124 15.508 208.763 15.508C211.402 15.508 213.684 16.063 215.608 17.173C217.532 18.283 219.012 19.8493 220.048 21.872C221.109 23.87 221.639 26.2133 221.639 28.902C221.639 31.64 221.109 34.0203 220.048 36.043C219.012 38.041 217.532 39.6073 215.608 40.742C213.684 41.852 211.402 42.407 208.763 42.407C206.124 42.407 203.842 41.852 201.918 40.742C200.019 39.6073 198.551 38.0287 197.515 36.006C196.479 33.9833 195.961 31.6277 195.961 28.939ZM201.992 28.939C201.992 31.6277 202.547 33.7367 203.657 35.266C204.792 36.7707 206.494 37.523 208.763 37.523C210.983 37.523 212.673 36.7707 213.832 35.266C214.991 33.7367 215.571 31.6277 215.571 28.939C215.571 26.2257 214.991 24.129 213.832 22.649C212.697 21.1443 211.008 20.392 208.763 20.392C206.494 20.392 204.792 21.1443 203.657 22.649C202.547 24.129 201.992 26.2257 201.992 28.939ZM225.373 28.939C225.373 26.2257 225.879 23.87 226.89 21.872C227.926 19.8493 229.406 18.283 231.33 17.173C233.254 16.063 235.536 15.508 238.175 15.508C240.814 15.508 243.096 16.063 245.02 17.173C246.944 18.283 248.424 19.8493 249.46 21.872C250.521 23.87 251.051 26.2133 251.051 28.902C251.051 31.64 250.521 34.0203 249.46 36.043C248.424 38.041 246.944 39.6073 245.02 40.742C243.096 41.852 240.814 42.407 238.175 42.407C235.536 42.407 233.254 41.852 231.33 40.742C229.431 39.6073 227.963 38.0287 226.927 36.006C225.891 33.9833 225.373 31.6277 225.373 28.939ZM231.404 28.939C231.404 31.6277 231.959 33.7367 233.069 35.266C234.204 36.7707 235.906 37.523 238.175 37.523C240.395 37.523 242.085 36.7707 243.244 35.266C244.403 33.7367 244.983 31.6277 244.983 28.939C244.983 26.2257 244.403 24.129 243.244 22.649C242.109 21.1443 240.42 20.392 238.175 20.392C235.906 20.392 234.204 21.1443 233.069 22.649C231.959 24.129 231.404 26.2257 231.404 28.939ZM255.562 42V15.915H261.334V37.153H273.1V42H255.562Z" fill="#001A49"/>
<path d="M8.51 36.301L1.406 28.235L8.51 20.132H17.612L10.508 28.235L17.612 36.301H8.51ZM38.7943 5.776L28.9153 48.141H21.9223L31.8013 5.776H38.7943ZM42.7112 20.132H51.7762L58.8802 28.235L51.7762 36.301H42.7112L49.8152 28.235L42.7112 20.132Z" fill="#3C82F4"/>
</svg>
